%TF.GenerationSoftware,KiCad,Pcbnew,(5.1.9)-1*%
%TF.CreationDate,2021-04-20T21:27:49-05:00*%
%TF.ProjectId,entrenador pic18f4550,656e7472-656e-4616-946f-722070696331,rev?*%
%TF.SameCoordinates,Original*%
%TF.FileFunction,Soldermask,Bot*%
%TF.FilePolarity,Negative*%
%FSLAX46Y46*%
G04 Gerber Fmt 4.6, Leading zero omitted, Abs format (unit mm)*
G04 Created by KiCad (PCBNEW (5.1.9)-1) date 2021-04-20 21:27:49*
%MOMM*%
%LPD*%
G01*
G04 APERTURE LIST*
%ADD10C,1.600000*%
%ADD11R,1.600000X1.600000*%
%ADD12O,1.600000X1.600000*%
%ADD13R,1.800000X1.800000*%
%ADD14C,1.800000*%
%ADD15R,3.500000X3.500000*%
%ADD16C,2.700000*%
%ADD17C,1.520000*%
%ADD18C,2.000000*%
%ADD19R,2.000000X2.000000*%
%ADD20O,1.700000X1.700000*%
%ADD21R,1.700000X1.700000*%
%ADD22R,0.900000X1.500000*%
%ADD23O,0.900000X1.500000*%
%ADD24O,1.400000X1.400000*%
%ADD25C,1.400000*%
%ADD26O,2.032000X2.540000*%
%ADD27C,1.500000*%
%ADD28C,2.200000*%
G04 APERTURE END LIST*
D10*
%TO.C,C1*%
X54800500Y-57173500D03*
D11*
X54800500Y-54673500D03*
%TD*%
D10*
%TO.C,C2*%
X72453500Y-57300500D03*
D11*
X72453500Y-54800500D03*
%TD*%
%TO.C,C3*%
X63817500Y-54713500D03*
D10*
X63817500Y-57213500D03*
%TD*%
%TO.C,C4*%
X80518000Y-59800500D03*
X80518000Y-54800500D03*
%TD*%
%TO.C,C5*%
X63246000Y-61595000D03*
X63246000Y-66595000D03*
%TD*%
%TO.C,C6*%
X71979800Y-112420400D03*
X66979800Y-112420400D03*
%TD*%
D11*
%TO.C,C7*%
X88582500Y-55499000D03*
D10*
X88582500Y-57999000D03*
%TD*%
%TO.C,C8*%
X56150500Y-98234500D03*
X61150500Y-98234500D03*
%TD*%
%TO.C,C9*%
X61261000Y-103441500D03*
X56261000Y-103441500D03*
%TD*%
D11*
%TO.C,D1*%
X73977500Y-48641000D03*
D12*
X66357500Y-48641000D03*
%TD*%
%TO.C,D2*%
X59245500Y-66802000D03*
D11*
X51625500Y-66802000D03*
%TD*%
D12*
%TO.C,D3*%
X70548500Y-60896500D03*
D11*
X70548500Y-68516500D03*
%TD*%
D13*
%TO.C,LED RA4*%
X77470000Y-124904500D03*
D14*
X77470000Y-122364500D03*
%TD*%
%TO.C,LED ON*%
X87249000Y-122364500D03*
D13*
X87249000Y-124904500D03*
%TD*%
D15*
%TO.C,J1*%
X49783000Y-45514000D03*
X54483000Y-42514000D03*
X54483000Y-48514000D03*
%TD*%
D16*
%TO.C,J2*%
X84932000Y-43814000D03*
X96932000Y-43814000D03*
D17*
X92202000Y-46514000D03*
X89662000Y-46514000D03*
X89662000Y-48514000D03*
X92202000Y-48514000D03*
%TD*%
D18*
%TO.C,PUERTO E*%
X47561500Y-94107000D03*
X47561500Y-91567000D03*
D19*
X47561500Y-89027000D03*
%TD*%
%TO.C,PUERTO B*%
X100330000Y-86042500D03*
D18*
X100330000Y-83502500D03*
X100330000Y-80962500D03*
X100330000Y-78422500D03*
X100330000Y-75882500D03*
X100330000Y-73342500D03*
X100330000Y-70802500D03*
X100330000Y-68262500D03*
%TD*%
D19*
%TO.C,PUERTO C*%
X47853600Y-101828600D03*
D18*
X47853600Y-104368600D03*
X47853600Y-106908600D03*
X47853600Y-109448600D03*
X47853600Y-111988600D03*
X47853600Y-114528600D03*
X47853600Y-117068600D03*
%TD*%
%TO.C,PUERTO D*%
X100203000Y-91567000D03*
X100203000Y-94107000D03*
X100203000Y-96647000D03*
X100203000Y-99187000D03*
X100203000Y-101727000D03*
X100203000Y-104267000D03*
X100203000Y-106807000D03*
D19*
X100203000Y-109347000D03*
%TD*%
D18*
%TO.C,POWER*%
X47434500Y-67119500D03*
X47434500Y-64579500D03*
X47434500Y-62039500D03*
X47434500Y-59499500D03*
X47434500Y-56959500D03*
D19*
X47434500Y-54419500D03*
%TD*%
D20*
%TO.C,*%
X100266500Y-63055500D03*
X100266500Y-60515500D03*
X100266500Y-57975500D03*
X100266500Y-55435500D03*
D21*
X100266500Y-52895500D03*
%TD*%
D22*
%TO.C,Q1*%
X78105000Y-49657000D03*
D23*
X80645000Y-49657000D03*
X79375000Y-49657000D03*
%TD*%
D24*
%TO.C,R1*%
X59245500Y-61531500D03*
D25*
X51625500Y-61531500D03*
%TD*%
%TO.C,R2*%
X73977500Y-51943000D03*
D24*
X66357500Y-51943000D03*
%TD*%
%TO.C,R3*%
X96012000Y-61595000D03*
D25*
X96012000Y-53975000D03*
%TD*%
%TO.C,R4*%
X83439000Y-63690500D03*
D24*
X75819000Y-63690500D03*
%TD*%
%TO.C,R5*%
X70688200Y-122428000D03*
D25*
X63068200Y-122428000D03*
%TD*%
%TO.C,R6*%
X63068200Y-118516400D03*
D24*
X70688200Y-118516400D03*
%TD*%
D18*
%TO.C,RESET*%
X59535200Y-119278400D03*
X59535200Y-123778400D03*
X53035200Y-119278400D03*
X53035200Y-123778400D03*
%TD*%
D11*
%TO.C,U1*%
X75120500Y-68516500D03*
D12*
X90360500Y-116776500D03*
X75120500Y-71056500D03*
X90360500Y-114236500D03*
X75120500Y-73596500D03*
X90360500Y-111696500D03*
X75120500Y-76136500D03*
X90360500Y-109156500D03*
X75120500Y-78676500D03*
X90360500Y-106616500D03*
X75120500Y-81216500D03*
X90360500Y-104076500D03*
X75120500Y-83756500D03*
X90360500Y-101536500D03*
X75120500Y-86296500D03*
X90360500Y-98996500D03*
X75120500Y-88836500D03*
X90360500Y-96456500D03*
X75120500Y-91376500D03*
X90360500Y-93916500D03*
X75120500Y-93916500D03*
X90360500Y-91376500D03*
X75120500Y-96456500D03*
X90360500Y-88836500D03*
X75120500Y-98996500D03*
X90360500Y-86296500D03*
X75120500Y-101536500D03*
X90360500Y-83756500D03*
X75120500Y-104076500D03*
X90360500Y-81216500D03*
X75120500Y-106616500D03*
X90360500Y-78676500D03*
X75120500Y-109156500D03*
X90360500Y-76136500D03*
X75120500Y-111696500D03*
X90360500Y-73596500D03*
X75120500Y-114236500D03*
X90360500Y-71056500D03*
X75120500Y-116776500D03*
X90360500Y-68516500D03*
%TD*%
D26*
%TO.C,U2*%
X63690500Y-43815000D03*
X68770500Y-43815000D03*
X66230500Y-43815000D03*
%TD*%
%TO.C,U3*%
X77533500Y-43815000D03*
X80073500Y-43815000D03*
X74993500Y-43815000D03*
%TD*%
D27*
%TO.C,20MHz*%
X66865500Y-103187500D03*
X66865500Y-98287500D03*
%TD*%
D18*
%TO.C,PUERTO A*%
X47434500Y-84518500D03*
X47434500Y-81978500D03*
X47434500Y-79438500D03*
X47434500Y-76898500D03*
X47434500Y-74358500D03*
D19*
X47434500Y-71818500D03*
%TD*%
D28*
%TO.C,*%
X101041200Y-125958600D03*
%TD*%
%TO.C,*%
X49022000Y-123596400D03*
%TD*%
%TO.C,*%
X101777800Y-40589200D03*
%TD*%
%TO.C,*%
X48387000Y-41808400D03*
%TD*%
M02*
