M48
; DRILL file {KiCad (5.1.9)-1} date 04/20/21 21:29:09
; FORMAT={-:-/ absolute / inch / decimal}
; #@! TF.CreationDate,2021-04-20T21:29:09-05:00
; #@! TF.GenerationSoftware,Kicad,Pcbnew,(5.1.9)-1
; #@! TF.FileFunction,Plated,1,2,PTH
FMAT,2
INCH
T1C0.0236
T2C0.0276
T3C0.0315
T4C0.0319
T5C0.0354
T6C0.0374
T7C0.0394
T8C0.0433
T9C0.0450
T10C0.0906
%
G90
G05
T1
X3.075Y-1.955
X3.125Y-1.955
X3.175Y-1.955
T2
X2.0325Y-2.4225
X2.3325Y-2.4225
X2.483Y-4.666
X2.483Y-4.82
X2.6125Y-2.045
X2.783Y-4.666
X2.783Y-4.82
X2.9125Y-2.045
X2.985Y-2.5075
X3.285Y-2.5075
X3.78Y-2.125
X3.78Y-2.425
T3
X2.0325Y-2.63
X2.1575Y-2.1525
X2.1575Y-2.2509
X2.2106Y-3.8675
X2.215Y-4.0725
X2.3325Y-2.63
X2.4075Y-3.8675
X2.4119Y-4.0725
X2.49Y-2.425
X2.49Y-2.6219
X2.5125Y-2.1541
X2.5125Y-2.2525
X2.6125Y-1.915
X2.6325Y-3.8696
X2.6325Y-4.0625
X2.637Y-4.426
X2.7775Y-2.3975
X2.7775Y-2.6975
X2.8339Y-4.426
X2.8525Y-2.1575
X2.8525Y-2.2559
X2.9125Y-1.915
X2.9575Y-2.6975
X2.9575Y-2.7975
X2.9575Y-2.8975
X2.9575Y-2.9975
X2.9575Y-3.0975
X2.9575Y-3.1975
X2.9575Y-3.2975
X2.9575Y-3.3975
X2.9575Y-3.4975
X2.9575Y-3.5975
X2.9575Y-3.6975
X2.9575Y-3.7975
X2.9575Y-3.8975
X2.9575Y-3.9975
X2.9575Y-4.0975
X2.9575Y-4.1975
X2.9575Y-4.2975
X2.9575Y-4.3975
X2.9575Y-4.4975
X2.9575Y-4.5975
X3.17Y-2.1575
X3.17Y-2.3544
X3.4875Y-2.185
X3.4875Y-2.2834
X3.5575Y-2.6975
X3.5575Y-2.7975
X3.5575Y-2.8975
X3.5575Y-2.9975
X3.5575Y-3.0975
X3.5575Y-3.1975
X3.5575Y-3.2975
X3.5575Y-3.3975
X3.5575Y-3.4975
X3.5575Y-3.5975
X3.5575Y-3.6975
X3.5575Y-3.7975
X3.5575Y-3.8975
X3.5575Y-3.9975
X3.5575Y-4.0975
X3.5575Y-4.1975
X3.5575Y-4.2975
X3.5575Y-4.3975
X3.5575Y-4.4975
X3.5575Y-4.5975
T4
X3.53Y-1.8313
X3.53Y-1.91
X3.63Y-1.8313
X3.63Y-1.91
T5
X3.05Y-4.8175
X3.05Y-4.9175
X3.435Y-4.8175
X3.435Y-4.9175
T6
X1.8675Y-2.1425
X1.8675Y-2.2425
X1.8675Y-2.3425
X1.8675Y-2.4425
X1.8675Y-2.5425
X1.8675Y-2.6425
X1.8675Y-2.8275
X1.8675Y-2.9275
X1.8675Y-3.0275
X1.8675Y-3.1275
X1.8675Y-3.2275
X1.8675Y-3.3275
X1.8725Y-3.505
X1.8725Y-3.605
X1.8725Y-3.705
X1.884Y-4.009
X1.884Y-4.109
X1.884Y-4.209
X1.884Y-4.309
X1.884Y-4.409
X1.884Y-4.509
X1.884Y-4.609
X3.945Y-3.605
X3.945Y-3.705
X3.945Y-3.805
X3.945Y-3.905
X3.945Y-4.005
X3.945Y-4.105
X3.945Y-4.205
X3.945Y-4.305
X3.95Y-2.6875
X3.95Y-2.7875
X3.95Y-2.8875
X3.95Y-2.9875
X3.95Y-3.0875
X3.95Y-3.1875
X3.95Y-3.2875
X3.95Y-3.3875
T7
X3.9475Y-2.0825
X3.9475Y-2.1825
X3.9475Y-2.2825
X3.9475Y-2.3825
X3.9475Y-2.4825
T8
X2.088Y-4.696
X2.088Y-4.8732
X2.3439Y-4.696
X2.3439Y-4.8732
T9
X2.5075Y-1.725
X2.6075Y-1.725
X2.7075Y-1.725
X2.9525Y-1.725
X3.0525Y-1.725
X3.1525Y-1.725
T10
X3.3438Y-1.725
X3.8162Y-1.725
T7
G00X1.96Y-1.7525
M15
G01X1.96Y-1.8313
M16
G05
G00X2.1844Y-1.6738
M15
G01X2.1056Y-1.6738
M16
G05
G00X2.1844Y-1.91
M15
G01X2.1056Y-1.91
M16
G05
T0
M30
